<svg xmlns="http://www.w3.org/2000/svg" xmlns:xlink="http://www.w3.org/1999/xlink" viewBox="0 0 240.04 70.58"><defs><style>.cls-1{fill:#bcbec0;}.cls-2{fill:#fff;}.cls-3{fill:url(#New_Gradient_Swatch);}.cls-4{fill:url(#linear-gradient);}</style><linearGradient id="New_Gradient_Swatch" x1="57.12" y1="91.24" x2="183.89" y2="-35.53" gradientUnits="userSpaceOnUse"><stop offset="0" stop-color="#5485ee"/><stop offset="1" stop-color="#42d7dd"/></linearGradient><linearGradient id="linear-gradient" x1="4.82" y1="17.05" x2="24.9" y2="-3.03" gradientUnits="userSpaceOnUse"><stop offset="0" stop-color="#bc3d2f"/><stop offset="1" stop-color="#8c43ac"/></linearGradient></defs><g id="Layer_2" data-name="Layer 2"><g id="Layer_1-2" data-name="Layer 1"><rect class="cls-1" y="50.55" width="240.04" height="20.03" rx="5"/><path class="cls-2" d="M68.1,62v1.25H64v-4.9h4V59.6H65.64v.58h2.08v1.19H65.64V62Z"/><path class="cls-2" d="M70.13,58.36h1.65V62H74v1.28H70.13Z"/><path class="cls-2" d="M80.77,58.36l-2.07,4.9H77.08L75,58.36h1.78L78,61.22l1.2-2.86Z"/><path class="cls-2" d="M82.39,61.05V58.36h1.66V61c0,.75.28,1,.75,1s.75-.28.75-1V58.36h1.62v2.69a2.39,2.39,0,0,1-4.78,0Z"/><path class="cls-2" d="M89.32,58.36H91v4.9H89.32Z"/><path class="cls-2" d="M100.75,62v1.25H96.67v-4.9h4V59.6H98.3v.58h2.07v1.19H98.3V62Z"/><path class="cls-2" d="M107.62,58.36v4.9h-1.36L104.4,61v2.23h-1.61v-4.9h1.35L106,60.58V58.36Z"/><path class="cls-2" d="M114.65,58.36v4.9H113V61.45h-1.52v1.81h-1.66v-4.9h1.66v1.73H113V58.36Z"/><path class="cls-2" d="M120.18,62.4h-1.86l-.33.86h-1.68l2.14-4.9h1.63l2.14,4.9h-1.71Zm-.45-1.19L119.25,60l-.48,1.23Z"/><path class="cls-2" d="M128.72,58.36v4.9h-1.36L125.49,61v2.23h-1.61v-4.9h1.36l1.86,2.22V58.36Z"/><path class="cls-2" d="M130.72,60.81a2.56,2.56,0,0,1,2.73-2.57,2.66,2.66,0,0,1,2.2,1l-1.05.94a1.32,1.32,0,0,0-1.07-.58,1.23,1.23,0,0,0,0,2.45,1.33,1.33,0,0,0,1.07-.57l1.05.93a2.66,2.66,0,0,1-2.2,1A2.55,2.55,0,0,1,130.72,60.81Z"/><path class="cls-2" d="M141.6,62v1.25h-4.08v-4.9h4V59.6h-2.36v.58h2.08v1.19h-2.08V62Z"/><path class="cls-2" d="M148,63.26,148,61l-1.06,1.8h-.73l-1.06-1.72v2.16h-1.51v-4.9H145l1.6,2.61,1.55-2.61h1.36v4.9Z"/><path class="cls-2" d="M155.78,62v1.25h-4.07v-4.9h4V59.6h-2.36v.58h2.08v1.19h-2.08V62Z"/><path class="cls-2" d="M162.65,58.36v4.9h-1.36L159.43,61v2.23h-1.61v-4.9h1.36L161,60.58V58.36Z"/><path class="cls-2" d="M165.91,59.64h-1.43V58.36H169v1.28h-1.44v3.62h-1.65Z"/><path class="cls-2" d="M170.52,62.87l.53-1.21a3.29,3.29,0,0,0,1.62.45c.47,0,.63-.1.63-.27,0-.61-2.71-.11-2.71-1.94,0-.91.77-1.66,2.29-1.66a3.91,3.91,0,0,1,1.85.43l-.5,1.2a3,3,0,0,0-1.37-.37c-.48,0-.63.15-.63.31,0,.59,2.71.1,2.71,1.91,0,.89-.77,1.65-2.29,1.65A4.38,4.38,0,0,1,170.52,62.87Z"/><path class="cls-3" d="M43.73,17.89,34.27,43.52H28.51L21.89,25.86,15.17,43.52H9.41L0,17.89H5.66L12.43,36.8l7.06-18.91h5l6.91,19,7-19Zm2.83-7.83a3.66,3.66,0,0,1,3.84-3.6,3.57,3.57,0,0,1,3.84,3.46,3.84,3.84,0,0,1-7.68.14Zm.82,7.83h6V43.52h-6ZM86,28.83V43.52H80V29.6c0-4.56-2.26-6.77-6.1-6.77-4.27,0-7.15,2.59-7.15,7.73v13h-6V17.89h5.71V21.2c2-2.35,5.09-3.6,8.83-3.6C81.46,17.6,86,21.1,86,28.83ZM118.51,7.9V43.52h-5.76V40.21a10.56,10.56,0,0,1-8.5,3.65c-7.44,0-13-5.19-13-13.16s5.52-13.1,13-13.1a10.46,10.46,0,0,1,8.26,3.46V7.9Zm-5.9,22.8c0-4.89-3.31-8-7.64-8s-7.63,3.12-7.63,8,3.31,8,7.63,8S112.61,35.6,112.61,30.7Zm30,11.43a9.44,9.44,0,0,1-5.76,1.73c-5.62,0-8.84-3-8.84-8.64V22.88h-4.22v-4.8H128V12.22h6v5.86h6.86v4.8H134V35.07c0,2.5,1.24,3.84,3.55,3.84a5.38,5.38,0,0,0,3.36-1Zm1.49-11.43c0-7.68,5.76-13.1,13.63-13.1S171.36,23,171.36,30.7s-5.71,13.16-13.68,13.16S144.05,38.38,144.05,30.7Zm21.26,0c0-4.89-3.26-8-7.63-8s-7.59,3.12-7.59,8,3.27,8,7.59,8S165.31,35.6,165.31,30.7Zm9.22,0c0-7.68,5.76-13.1,13.63-13.1S201.84,23,201.84,30.7s-5.71,13.16-13.68,13.16S174.53,38.38,174.53,30.7Zm21.26,0c0-4.89-3.26-8-7.63-8s-7.59,3.12-7.59,8,3.27,8,7.59,8S195.79,35.6,195.79,30.7ZM207.12,7.9h6V43.52h-6ZM217.58,41l2.3-4.56A17.36,17.36,0,0,0,228.81,39c3.79,0,5.38-1.06,5.38-2.83,0-4.9-15.84-.29-15.84-10.51,0-4.85,4.37-8,11.28-8a20.44,20.44,0,0,1,9.6,2.21l-2.31,4.56a14,14,0,0,0-7.34-1.92c-3.65,0-5.38,1.2-5.38,2.88,0,5.18,15.84.57,15.84,10.61,0,4.8-4.41,7.92-11.61,7.92C224.16,43.86,219.88,42.61,217.58,41Z"/><path class="cls-4" d="M6.11,0H25.4a6.11,6.11,0,0,1,6.11,6.11v0a6.11,6.11,0,0,1-6.11,6.11H0a0,0,0,0,1,0,0V6.11A6.11,6.11,0,0,1,6.11,0Z"/><polyline class="cls-2" points="6.9 3.15 11.73 3.15 11.73 4.38 6.9 4.38"/><polyline class="cls-2" points="23.62 2.87 24.62 2.87 24.62 3.91 23.62 3.91"/><polyline class="cls-2" points="6.9 5.71 11.02 5.71 11.02 6.85 8.21 6.85 8.26 8.17 11.68 8.17 11.68 9.36 6.9 9.36"/><polyline class="cls-2" points="12.44 4.48 13.48 4.48 13.48 8.46 15.95 8.46 15.95 9.36 12.44 9.36"/><polyline class="cls-2" points="15.19 4.48 16.34 4.48 17.39 7.86 19.07 2.87 20.18 2.87 18.01 9.36 16.75 9.36"/><path class="cls-2" d="M20.16,4.48h1.05V7.35a1.23,1.23,0,0,0,2.41.05V4.48h1V7.54a2.24,2.24,0,0,1-4.46-.24"/></g></g></svg>