<svg xmlns="http://www.w3.org/2000/svg" xmlns:xlink="http://www.w3.org/1999/xlink" viewBox="0 0 240.04 70.58"><defs><style>.cls-1{fill:#bcbec0;}.cls-2{font-size:7px;font-family:Montserrat-Black, Montserrat;font-weight:800;letter-spacing:0.2em;}.cls-2,.cls-6{fill:#fff;}.cls-3{letter-spacing:0.15em;}.cls-4{fill:url(#New_Gradient_Swatch);}.cls-5{fill:url(#linear-gradient);}</style><linearGradient id="New_Gradient_Swatch" x1="57.12" y1="91.24" x2="183.89" y2="-35.53" gradientUnits="userSpaceOnUse"><stop offset="0" stop-color="#5485ee"/><stop offset="1" stop-color="#42d7dd"/></linearGradient><linearGradient id="linear-gradient" x1="4.82" y1="17.05" x2="24.9" y2="-3.03" gradientUnits="userSpaceOnUse"><stop offset="0" stop-color="#bc3d2f"/><stop offset="1" stop-color="#8c43ac"/></linearGradient></defs><g id="Layer_2" data-name="Layer 2"><g id="Layer_1-2" data-name="Layer 1"><rect class="cls-1" y="50.55" width="240.04" height="20.03" rx="5"/><text class="cls-2" transform="translate(63.62 63.26)">E<tspan class="cls-3" x="6.11" y="0">L</tspan><tspan x="11.51" y="0">VUI ENHANCEMENTS</tspan></text><path class="cls-4" d="M43.73,17.89,34.27,43.52H28.51L21.89,25.86,15.17,43.52H9.41L0,17.89H5.66L12.43,36.8l7.06-18.91h5l6.91,19,7-19Zm2.83-7.83a3.66,3.66,0,0,1,3.84-3.6,3.57,3.57,0,0,1,3.84,3.46,3.84,3.84,0,0,1-7.68.14Zm.82,7.83h6V43.52h-6ZM86,28.83V43.52H80V29.6c0-4.56-2.26-6.77-6.1-6.77-4.27,0-7.15,2.59-7.15,7.73v13h-6V17.89h5.71V21.2c2-2.35,5.09-3.6,8.83-3.6C81.46,17.6,86,21.1,86,28.83ZM118.51,7.9V43.52h-5.76V40.21a10.56,10.56,0,0,1-8.5,3.65c-7.44,0-13-5.19-13-13.16s5.52-13.1,13-13.1a10.46,10.46,0,0,1,8.26,3.46V7.9Zm-5.9,22.8c0-4.89-3.31-8-7.64-8s-7.63,3.12-7.63,8,3.31,8,7.63,8S112.61,35.6,112.61,30.7Zm30,11.43a9.44,9.44,0,0,1-5.76,1.73c-5.62,0-8.84-3-8.84-8.64V22.88h-4.22v-4.8H128V12.22h6v5.86h6.86v4.8H134V35.07c0,2.5,1.24,3.84,3.55,3.84a5.38,5.38,0,0,0,3.36-1Zm1.49-11.43c0-7.68,5.76-13.1,13.63-13.1S171.36,23,171.36,30.7s-5.71,13.16-13.68,13.16S144.05,38.38,144.05,30.7Zm21.26,0c0-4.89-3.26-8-7.63-8s-7.59,3.12-7.59,8,3.27,8,7.59,8S165.31,35.6,165.31,30.7Zm9.22,0c0-7.68,5.76-13.1,13.63-13.1S201.84,23,201.84,30.7s-5.71,13.16-13.68,13.16S174.53,38.38,174.53,30.7Zm21.26,0c0-4.89-3.26-8-7.63-8s-7.59,3.12-7.59,8,3.27,8,7.59,8S195.79,35.6,195.79,30.7ZM207.12,7.9h6V43.52h-6ZM217.58,41l2.3-4.56A17.36,17.36,0,0,0,228.81,39c3.79,0,5.38-1.06,5.38-2.83,0-4.9-15.84-.29-15.84-10.51,0-4.85,4.37-8,11.28-8a20.44,20.44,0,0,1,9.6,2.21l-2.31,4.56a14,14,0,0,0-7.34-1.92c-3.65,0-5.38,1.2-5.38,2.88,0,5.18,15.84.57,15.84,10.61,0,4.8-4.41,7.92-11.61,7.92C224.16,43.86,219.88,42.61,217.58,41Z"/><path class="cls-5" d="M6.11,0H25.4a6.11,6.11,0,0,1,6.11,6.11v0a6.11,6.11,0,0,1-6.11,6.11H0a0,0,0,0,1,0,0V6.11A6.11,6.11,0,0,1,6.11,0Z"/><polyline class="cls-6" points="6.9 3.15 11.73 3.15 11.73 4.38 6.9 4.38"/><polyline class="cls-6" points="23.62 2.87 24.62 2.87 24.62 3.91 23.62 3.91"/><polyline class="cls-6" points="6.9 5.71 11.02 5.71 11.02 6.85 8.21 6.85 8.26 8.17 11.68 8.17 11.68 9.36 6.9 9.36"/><polyline class="cls-6" points="12.44 4.48 13.48 4.48 13.48 8.46 15.95 8.46 15.95 9.36 12.44 9.36"/><polyline class="cls-6" points="15.19 4.48 16.34 4.48 17.39 7.86 19.07 2.87 20.18 2.87 18.01 9.36 16.75 9.36"/><path class="cls-6" d="M20.16,4.48h1.05V7.35a1.23,1.23,0,0,0,2.41.05V4.48h1V7.54a2.24,2.24,0,0,1-4.46-.24"/></g></g></svg>